<?xml version="1.0" encoding="UTF-8"?>
<!DOCTYPE svg PUBLIC "-//W3C//DTD SVG 1.1//EN" "http://www.w3.org/Graphics/SVG/1.1/DTD/svg11.dtd">
<!-- Creator: CorelDRAW Home & Student X8 -->
<svg xmlns="http://www.w3.org/2000/svg" xml:space="preserve" width="210mm" height="297mm" version="1.1" style="shape-rendering:geometricPrecision; text-rendering:geometricPrecision; image-rendering:optimizeQuality; fill-rule:evenodd; clip-rule:evenodd"
viewBox="0 0 21000 29700"
 xmlns:xlink="http://www.w3.org/1999/xlink">
 <defs>
  <style type="text/css">
   <![CDATA[
    .fil1 {fill:#4E4B4B;fill-rule:nonzero}
    .fil0 {fill:#3F3C3C;fill-rule:nonzero}
   ]]>
  </style>
 </defs>
 <g id="Layer_x0020_1">
  <metadata id="CorelCorpID_0Corel-Layer"/>
  <path class="fil0" d="M10185 8339c18,-48 37,-93 66,-130 19,-28 39,-53 60,-74 124,-116 300,-127 389,38 10,19 19,40 26,64 5,16 9,33 13,51 14,85 5,178 -24,251 -46,127 -124,244 -213,349 -115,123 -274,213 -462,278 12,-246 64,-619 145,-827zm-147 929c0,-8 0,-16 0,-25 46,-17 90,-36 133,-56 -56,37 -134,89 -133,81zm4307 -686c7,111 -11,200 -56,300 -331,652 -1026,611 -1718,670 -779,66 -1296,83 -1694,482 -110,102 -198,334 -287,334 -89,4 -160,-136 -201,-251 -22,-58 -70,-216 -60,-278 4,-33 11,-58 29,-76 71,-72 159,-161 182,-239 3,-10 5,-19 7,-27 2,-5 3,-10 4,-15 0,-3 1,-6 1,-9 1,-4 2,-8 2,-11 0,-3 1,-6 1,-9 0,-4 1,-7 1,-11 0,-3 0,-5 0,-8 0,-3 1,-7 1,-10 0,-3 -1,-6 -1,-8 0,-3 0,-7 0,-10 0,-2 -1,-5 -1,-7 0,-3 0,-6 -1,-9 0,-3 -1,-5 -1,-8 -1,-3 -1,-5 -2,-8 0,-3 -1,-5 -2,-7 0,-3 -1,-5 -2,-8 -1,-2 -2,-4 -2,-7 -1,-2 -2,-4 -3,-7 -1,-2 -2,-4 -3,-6 -1,-2 -2,-4 -3,-6 -1,-2 -2,-4 -3,-6 -2,-2 -3,-4 -4,-6 -1,-2 -3,-3 -4,-5 -1,-2 -3,-4 -4,-6 -1,-1 -3,-3 -4,-4 -2,-2 -3,-3 -5,-5 -1,-1 -3,-2 -4,-4 -2,-1 -4,-2 -5,-4 -2,-1 -3,-2 -5,-3 -2,-1 -4,-2 -5,-3 -2,-1 -4,-2 -5,-3 -2,-1 -4,-2 -6,-2 -2,-1 -4,-2 -6,-2 -2,-1 -4,-2 -6,-2 -1,-1 -3,-1 -5,-1 -2,-1 -4,-1 -6,-1 -3,-1 -4,-1 -6,-1 -3,0 -5,0 -7,0 -2,0 -4,0 -6,0 -2,0 -4,0 -7,1 -2,0 -4,0 -6,1 -2,0 -5,1 -7,1 -2,1 -4,1 -6,2 -3,1 -5,1 -7,2 -3,1 -5,2 -7,3 -2,1 -5,2 -7,3 -2,1 -5,2 -7,4 -2,1 -5,2 -7,4 -2,1 -5,3 -7,4 -2,2 -5,4 -7,5 -2,2 -5,4 -7,5 -2,2 -5,5 -7,7 -3,2 -5,4 -7,6 -3,2 -5,5 -8,7 -2,3 -4,5 -6,7 -3,3 -5,6 -8,9 -2,2 -4,5 -6,7 -3,4 -6,7 -9,11 -2,3 -3,5 -5,8 -3,4 -6,9 -10,13 -1,2 -3,5 -4,7 -5,7 -9,15 -14,23 -6,10 -11,20 -17,30 -3,5 -5,10 -8,16 -3,5 -6,10 -8,16 -4,7 -8,15 -11,23 -2,3 -3,6 -5,9 -4,10 -8,20 -13,30 0,1 -1,2 -1,3 -5,12 -9,23 -13,34 -1,0 -1,1 -1,1 -49,128 -83,270 -111,402 -15,-128 -31,-260 -41,-392 -5,-81 -9,-166 -10,-258 0,-3 0,-7 0,-10 70,-39 143,-84 214,-138 214,-158 411,-374 505,-625 29,-81 39,-176 26,-263 -1,-3 -1,-5 -1,-8 0,0 -1,0 -1,0 -3,-20 -7,-39 -12,-58 -88,-297 -390,-275 -577,-101 -6,5 -12,10 -18,16 -48,47 -88,107 -127,176 -17,33 -33,68 -48,107 -52,123 -87,262 -110,408 -23,135 -36,263 -41,388 -371,90 -603,74 -1062,96 -869,42 -1293,11 -1636,525 -94,132 -161,313 -149,483 4,24 42,23 41,-4 -5,-112 16,-202 64,-299 348,-642 907,-551 1599,-593 481,-26 746,-15 1140,-121 -2,162 9,321 28,487 1,8 2,17 3,25 0,5 1,10 2,15 9,79 21,157 34,237 0,6 1,12 3,18 0,1 0,2 0,3 2,5 3,9 4,13 0,1 0,2 1,2 1,5 3,9 4,13 0,0 1,1 1,1 48,114 190,28 187,26 -3,-18 -2,-12 -3,-33 3,-24 7,-50 11,-76l0 0c1,-3 1,-6 2,-8 25,-154 71,-333 133,-480 0,0 0,0 0,0 3,-7 6,-14 9,-22 2,-5 5,-10 7,-15 3,-6 5,-12 8,-17 3,-7 7,-14 10,-20 2,-4 4,-9 7,-13 5,-11 11,-21 17,-32 121,-196 164,-31 124,98 -3,7 -6,14 -9,20 -1,2 -1,4 -2,5 -3,6 -6,12 -9,17 0,1 -1,2 -2,3 -7,14 -17,27 -26,40 -38,50 -88,94 -131,139 -23,22 -33,50 -41,87 -16,101 27,210 58,303 37,109 92,212 162,265 -1,1 -3,2 -4,3 5,4 10,8 14,11 1,-2 3,-3 4,-5 47,31 101,37 160,7 11,-6 20,-13 29,-19 0,2 0,5 0,7 19,-14 39,-34 60,-57 1,-3 1,-6 2,-8 66,-77 109,-175 186,-250 369,-361 845,-372 1608,-431 869,-66 1429,-82 1758,-606 88,-134 151,-317 134,-486 -4,-24 -42,-20 -40,7z"/>
  <path class="fil1" d="M12623 9013c5,34 5,64 2,52 13,68 9,70 18,79 8,44 5,92 -2,42 0,0 4,32 7,64 3,16 3,32 4,44 1,12 1,20 1,20 0,0 0,-19 0,-38 0,-10 0,-20 -1,-27 0,-7 -1,-12 -1,-12 3,5 4,15 5,28 1,13 1,29 1,45 1,31 1,63 6,75 0,0 -1,-35 -2,-70 -1,-18 -1,-35 -2,-48 0,-7 -1,-13 -1,-16 0,-4 0,-6 0,-6l3 7c-5,-32 -9,-94 -10,-116 2,3 3,1 6,26 -2,-21 -4,-38 -6,-51 -2,-13 -4,-23 -5,-30 -3,-14 -5,-18 -8,-22 -2,-4 -4,-6 -7,-17 -2,-5 -3,-12 -5,-22 -2,-11 -5,-24 -9,-41 2,9 4,19 6,34z"/>
  <path class="fil1" d="M12614 8869l-23 -56c0,0 -1,-6 -3,-15 -1,-9 -4,-21 -7,-33 -7,-24 -13,-48 -13,-48 -3,-1 -25,-69 -15,-22 4,9 10,27 13,42 -4,-4 -14,-36 -23,-62 -9,-27 -17,-48 -16,-33 7,18 12,33 16,45 3,12 6,22 9,31 6,18 11,32 20,55 9,34 14,65 20,91 2,12 4,24 7,35 1,10 2,20 3,28 5,21 9,23 15,49 -1,-6 -2,-11 -4,-18l10 -4c-6,-22 -8,-44 -14,-68 0,0 0,2 2,5 1,3 2,7 4,12 3,11 7,25 11,39 8,28 16,56 16,56 1,-19 -5,-57 -11,-95 -8,-39 -18,-78 -21,-101 4,58 -14,-43 4,67z"/>
  <path class="fil1" d="M12617 8976c0,1 0,2 0,3 0,-1 0,-2 0,-3z"/>
  <path class="fil1" d="M8320 10740c14,19 20,24 23,26 0,0 -9,-14 -24,-34 -7,-11 -16,-23 -25,-36 -9,-13 -18,-27 -27,-41 -18,-29 -37,-57 -49,-79 -12,-22 -21,-37 -21,-37 2,9 38,78 11,34 4,11 15,32 28,49 13,18 25,35 29,38l-14 -14c19,24 32,47 38,60 5,12 3,14 -10,-2l3 5c0,0 29,32 58,64 15,17 30,32 42,43 11,12 19,20 19,20 -19,-26 -28,-34 -38,-44 -10,-10 -21,-21 -43,-52z"/>
  <path class="fil1" d="M12569 9780c-5,34 -5,39 -3,35 2,-12 3,-24 3,-35z"/>
  <path class="fil1" d="M8429 10864c0,0 9,10 20,19 10,9 20,18 20,18 -16,-15 -30,-28 -40,-37z"/>
  <path class="fil1" d="M8135 10607c-1,0 -1,-1 -1,1l15 20c0,0 0,0 0,-1 -5,-7 -10,-14 -14,-20z"/>
  <path class="fil1" d="M9415 11548c5,2 10,4 16,6 -6,-2 -11,-4 -16,-6z"/>
  <path class="fil1" d="M7826 9911c0,0 9,30 17,60 5,15 9,31 13,42 3,11 6,19 6,19 -7,-16 10,42 0,18 3,9 16,52 14,40l-7 -25c26,61 17,23 58,124 -8,-33 -16,-56 -24,-75 -6,-19 -13,-34 -20,-51 -3,-12 -6,-22 -10,-32 0,0 -2,-6 -6,-15 -4,-9 -9,-21 -13,-33 -8,-25 -17,-50 -17,-50l-11 -22z"/>
  <path class="fil1" d="M11777 11241l-1 2c1,-1 1,-2 1,-2z"/>
  <path class="fil1" d="M11774 11248l2 -5c-4,5 -23,21 -2,5z"/>
  <path class="fil1" d="M8413 10852c2,0 8,5 16,12l-28 -28c3,4 7,10 12,16z"/>
  <path class="fil1" d="M8342 10791l-60 -82c0,0 -2,-2 -4,-5 -2,-3 -5,-6 -8,-10 -6,-7 -12,-14 -12,-14 6,7 11,16 17,24 6,9 14,18 20,27 15,18 30,38 47,60z"/>
  <path class="fil1" d="M9272 11483c94,41 82,38 56,30 -25,-8 -64,-22 -21,-1 13,5 25,10 34,14 11,3 19,6 27,8 16,5 30,8 47,14 -77,-28 -70,-29 -64,-31 7,-2 13,-3 -63,-36 13,1 40,12 72,24 31,11 66,25 92,36 28,14 14,12 -8,5 -22,-7 -54,-18 -62,-17 62,23 51,18 79,23 49,17 100,33 147,44 24,5 46,12 66,17 20,5 37,11 52,17 36,8 54,10 67,11 14,0 24,0 45,2 5,-4 -22,-10 -53,-16 -32,-8 -67,-17 -80,-24 6,2 16,6 13,7 0,0 -16,-4 -31,-8 -16,-4 -31,-9 -31,-9 14,5 21,7 22,8 2,2 -3,2 -10,1 -13,-2 -38,-7 -54,-11 -23,-7 -69,-19 -62,-20 0,0 9,2 18,4 9,2 17,4 17,4 -22,-7 -46,-14 -71,-21 -25,-7 -51,-14 -72,-25 -2,-2 15,3 19,3 -27,-7 -53,-16 -81,-26 -29,-9 -60,-22 -98,-37l47 11c-32,-9 -81,-28 -132,-55 -52,-25 -104,-59 -147,-87 9,7 26,18 14,13 -13,-6 -25,-14 -35,-21 -10,-7 -18,-13 -24,-18 -12,-10 -15,-14 -2,-9 -13,-6 -31,-17 -52,-31 -20,-14 -43,-31 -66,-49 -12,-8 -23,-18 -34,-27 -12,-9 -23,-18 -34,-26 -11,-9 -21,-17 -31,-24 -10,-7 -19,-14 -27,-20 0,0 -19,-13 -48,-32 -14,-9 -30,-22 -48,-35 -17,-13 -36,-27 -54,-41 -19,-14 -36,-29 -53,-43 -17,-14 -33,-27 -46,-39 -26,-23 -43,-39 -43,-39 10,10 20,21 30,32 9,15 16,26 16,28 0,2 -9,-4 -31,-24 11,10 18,17 24,21 6,5 10,8 15,12 11,8 23,19 53,50 -13,-11 -23,-16 -22,-12 1,3 4,8 10,16 7,8 16,20 32,35 20,17 39,34 57,50 9,8 19,15 28,22 10,7 19,14 28,21 19,14 36,28 54,40 19,12 37,24 55,35 35,24 73,44 110,67 19,11 39,21 59,32 20,11 40,23 61,34 2,5 36,25 78,50 10,6 21,12 32,18 12,6 23,12 34,17 22,11 42,23 59,31 -14,-3 -33,-11 -56,-21 -22,-10 -48,-21 -73,-35 15,9 38,20 60,32 12,6 23,12 35,18 5,3 11,6 16,9 6,2 11,5 17,7l22 -3z"/>
  <path class="fil1" d="M8846 11252c4,3 8,7 13,10 -2,-2 -6,-5 -13,-10z"/>
  <path class="fil1" d="M9107 11411c-1,0 -1,0 -1,0 5,3 11,6 16,9 -5,-3 -11,-7 -15,-9z"/>
  <path class="fil1" d="M8434 10899c-10,-8 -16,-15 -25,-24 5,5 11,13 18,20 6,6 10,8 7,4z"/>
  <path class="fil1" d="M8415 10860l6 3c-3,-4 -6,-7 -8,-11 -2,0 -2,2 2,8z"/>
  <path class="fil1" d="M10023 11738l21 1c-13,-1 -18,-1 -21,-1z"/>
  <path class="fil1" d="M9481 11578c-68,-23 -11,6 -106,-31l27 12c-17,-6 -37,-14 -60,-22 -22,-9 -45,-20 -69,-30 -12,-6 -24,-11 -36,-16 -12,-6 -23,-12 -35,-18 -22,-11 -44,-23 -63,-33 10,3 -45,-29 -33,-29 -26,-14 -52,-28 -75,-40 -22,-13 -42,-24 -57,-30 -30,-21 -78,-50 -115,-79 14,14 -61,-30 34,34 -7,-5 -3,-1 -11,-6 57,47 88,55 141,89 30,24 -55,-29 -26,-8 9,5 19,11 29,17 11,6 22,13 34,20 23,13 48,28 70,40 47,23 84,41 84,34 13,7 23,12 32,15 8,4 14,7 19,10 10,6 15,9 23,14 11,3 24,8 38,14 15,5 31,11 48,17 16,7 34,14 52,21 17,7 35,13 52,19 69,26 129,41 130,33 -16,-4 -37,-10 -60,-16 -22,-7 -47,-14 -71,-21l4 -10z"/>
  <path class="fil1" d="M8516 10990c3,3 7,8 9,11 -2,-4 -6,-7 -9,-11z"/>
  <path class="fil1" d="M8113 10276c0,0 1,3 3,8 2,5 5,11 7,17 6,13 11,25 11,25 -4,-12 -13,-30 -21,-50zm-35 -81l21 23c8,20 16,38 23,55 7,17 14,32 21,46 6,15 12,29 18,42 3,6 6,13 9,19 3,7 6,13 9,19 13,25 25,49 38,75 14,25 30,53 48,85 5,10 -5,-5 -10,-12 7,11 13,23 21,35 8,12 16,25 24,38 17,25 33,52 52,77 18,25 35,50 52,71 17,21 32,39 45,53 5,7 12,16 19,26 8,10 16,20 23,28 13,18 21,29 9,18 11,11 24,25 36,39 0,6 -28,-31 -31,-30 9,12 12,17 15,18 -18,-16 8,29 -69,-60 -10,-20 2,-4 18,12 15,17 31,35 26,22 -25,-29 -25,-23 -28,-25 -16,-18 -22,-29 -25,-33 -3,-5 -1,-5 0,-5 -7,-6 -19,-22 -32,-39 -6,-8 -13,-17 -19,-24 -6,-8 -12,-15 -16,-19 -56,-78 9,0 -27,-51 0,0 -8,-6 -15,-12 -4,-3 -7,-6 -10,-8 -3,-2 -4,-4 -4,-4l-55 -88c-39,-64 -40,-58 -43,-53 -1,2 -3,4 -10,-4 -7,-8 -20,-25 -41,-64 8,9 6,-3 -3,-26 -4,-12 -10,-26 -17,-42 -6,-16 -13,-34 -21,-53 5,11 12,24 19,38 7,15 16,30 25,45 17,32 35,65 49,92 -36,-79 61,104 46,60 -25,-35 -62,-97 -84,-148l9 16c-7,-13 -13,-26 -20,-38 -7,-12 -15,-23 -21,-36 -14,-26 -29,-54 -44,-92 -15,-38 -9,-32 -5,-26 -14,-32 -27,-60 -25,-60z"/>
  <path class="fil1" d="M12318 8129c2,5 5,10 8,15 -2,-3 -5,-9 -8,-15z"/>
  <path class="fil1" d="M8113 8211l17 -29c-7,11 -12,21 -17,29z"/>
  <path class="fil1" d="M8544 7599l34 -35c-14,13 -24,25 -34,35z"/>
  <path class="fil1" d="M12086 7809l-1 -2c-2,-2 -3,-3 -5,-5l6 7z"/>
  <path class="fil1" d="M9888 6970c8,0 16,0 28,-1 -2,-1 -12,0 -28,1z"/>
  <path class="fil1" d="M8538 7606c1,-1 1,-1 2,-2 1,-1 3,-3 4,-5l-6 7z"/>
  <path class="fil1" d="M7947 8497c-3,7 -5,14 -7,21 3,-10 5,-16 7,-21z"/>
  <path class="fil1" d="M7991 8464c-3,8 -5,14 -7,20l7 -20z"/>
  <path class="fil1" d="M7799 9591l5 44c-2,-22 -3,-35 -5,-44z"/>
  <path class="fil1" d="M7942 8573c0,2 0,5 0,7 1,-6 2,-9 0,-7z"/>
  <path class="fil1" d="M12422 8392c0,-1 -1,-2 -1,-2l-2 -1 3 3z"/>
  <path class="fil1" d="M12478 8485c5,12 10,24 15,36 -5,-14 -11,-27 -15,-36z"/>
  <path class="fil1" d="M10536 6979c12,3 39,9 26,9 23,0 22,-5 -26,-9z"/>
  <path class="fil1" d="M12269 8232c5,6 10,12 15,19 -9,-13 -17,-24 -15,-19z"/>
  <path class="fil1" d="M12284 8251c5,7 9,14 14,19 -5,-6 -10,-13 -14,-19z"/>
  <path class="fil1" d="M10237 7045c-3,0 -7,-1 -13,-1 2,2 6,2 13,1z"/>
  <path class="fil1" d="M12503 8551c5,5 64,165 20,29 4,1 12,23 21,48 5,13 9,27 13,40 4,13 8,25 11,34 -6,-27 8,12 8,3 -6,-18 -13,-39 -23,-69 -2,-15 16,29 25,66 -9,-45 21,54 6,-9 -9,-34 -21,-64 -31,-92 -11,-29 -20,-56 -32,-80 -11,-25 -22,-48 -33,-71 -10,-23 -23,-44 -36,-65 9,18 18,36 26,55 8,19 16,37 24,56 7,19 15,37 21,54 6,18 11,35 16,50l-15 -23c-2,-9 -5,-18 -7,-26 -3,-8 -5,-15 -8,-23 -5,-14 -11,-28 -16,-42 -6,-13 -11,-27 -17,-41 -7,-14 -13,-29 -21,-45 0,0 4,9 10,23 6,14 13,33 20,51 14,38 28,76 28,76 10,37 10,43 6,34 -2,-5 -6,-14 -10,-25 -5,-11 -10,-24 -16,-38 5,13 10,26 10,30z"/>
  <path class="fil1" d="M12411 8472l1 3c1,2 2,4 3,6l-4 -9z"/>
  <path class="fil1" d="M7930 9572l4 13c-2,-11 -3,-14 -4,-13z"/>
  <path class="fil1" d="M12401 8374l0 0c0,-1 -1,-1 0,0z"/>
  <path class="fil1" d="M7927 9242c1,0 1,1 1,2 0,-1 0,-1 -1,-2z"/>
  <path class="fil1" d="M7794 9140c0,1 0,1 -1,2 0,8 1,4 1,-2z"/>
  <path class="fil1" d="M7927 9242c0,0 0,0 0,0 0,0 0,-1 0,0z"/>
  <path class="fil1" d="M8533 7781c0,0 -4,3 -10,9 -2,2 1,0 10,-9z"/>
  <path class="fil1" d="M8323 8023c-1,2 -2,3 -4,5l4 -5z"/>
  <path class="fil1" d="M10461 6942c-17,-1 -29,-2 -39,-3 12,1 25,2 39,3z"/>
  <path class="fil1" d="M7928 9244c0,3 1,8 1,16 0,-9 -1,-13 -1,-16z"/>
  <path class="fil1" d="M8883 7436c-3,2 -5,4 -8,6l5 -3 3 -3z"/>
  <path class="fil1" d="M9028 7348c-5,3 -7,5 -9,7 25,-16 62,-37 94,-56 33,-17 60,-32 64,-38 -9,5 -38,18 -62,29 -25,12 -45,21 -38,15 -18,11 -41,24 -62,35 -21,11 -39,22 -48,29 60,-35 9,1 -29,28 -37,21 4,-9 -28,9l-80 58 71 -49 -18 21c3,-2 4,-4 7,-6 29,-22 45,-31 54,-36 9,-5 11,-5 13,-5 2,0 5,0 14,-5 5,-3 11,-7 20,-13 9,-6 21,-14 37,-23z"/>
  <path class="fil1" d="M9019 7355c-8,5 -14,10 -19,14 11,-7 15,-11 19,-14z"/>
  <path class="fil1" d="M9560 7127c7,-2 14,-5 24,-8 -5,2 -15,5 -24,8z"/>
  <path class="fil1" d="M8220 10618c0,-3 -38,-78 -42,-74 12,22 24,44 36,66 0,0 1,2 3,4 1,2 3,4 3,4z"/>
  <path class="fil1" d="M11139 7172c-9,-3 -18,-7 -26,-10 -2,-1 -4,-1 -6,-2 5,3 23,9 32,12z"/>
  <path class="fil1" d="M9099 7290c-13,8 -19,12 -22,15 9,-5 16,-11 22,-15z"/>
  <path class="fil1" d="M11139 7185c11,6 27,14 28,18 22,10 39,14 62,24 -13,-6 -27,-12 -42,-19 -7,-4 -15,-7 -23,-11 -8,-4 -16,-8 -25,-12z"/>
  <path class="fil1" d="M11231 7227c-1,0 -1,0 -2,0 1,0 1,0 2,0z"/>
  <path class="fil1" d="M7845 9865c0,0 1,2 1,3 -1,-1 -1,-3 -1,-4l0 1zm335 -1689c-8,14 -16,28 -23,42 -8,14 -16,28 -23,42 2,-2 3,-5 5,-8l-39 86c28,-51 51,-81 17,-8 1,-7 -12,12 -1,-13 -6,11 -16,26 -24,43 -8,16 -16,33 -23,48 -14,30 -21,50 -11,38 35,-98 20,-18 48,-94 -13,42 -33,80 -47,119 6,-21 3,-20 -6,-6 -8,14 -21,40 -34,70 -10,26 -34,98 -47,143 10,-14 0,26 26,-46 -4,14 -9,30 -16,50 -5,19 -12,41 -20,64 5,-19 13,-51 11,-50 -14,29 -23,64 -31,83 -4,16 -7,32 -10,47 1,-4 3,-8 4,-11l-7 53c13,-69 9,-31 12,-29 -5,-4 -11,44 -16,68l18 -50c-1,12 -7,34 -12,51 -4,17 -6,30 -2,24 3,-14 5,-27 8,-38 3,-12 6,-23 9,-33 4,-21 9,-39 13,-57 9,-36 19,-71 31,-120l-16 38c7,-28 12,-46 18,-58 5,-13 9,-22 13,-30 5,-9 9,-18 15,-33 3,-7 7,-15 11,-26 4,-10 9,-23 15,-37 13,-52 75,-177 68,-183 -2,8 9,-9 22,-33 7,-12 14,-25 21,-39 7,-13 13,-26 18,-36 8,-23 30,-67 48,-99 18,-33 31,-55 17,-37 -10,17 -23,36 -33,56 -11,20 -22,38 -32,51 0,0 9,-17 18,-34 5,-9 9,-17 13,-24 3,-6 6,-10 6,-10 0,0 -2,2 -5,6 -3,4 -6,9 -10,15 -7,10 -15,20 -15,20 15,-22 10,-22 -2,-15zm175 -270c21,-16 42,-34 78,-68 36,-34 85,-88 169,-170l-13 14c23,-19 44,-39 65,-59 22,-20 43,-40 66,-61 22,-21 46,-40 71,-61 25,-21 54,-40 84,-59 -27,22 -39,33 -52,45 -13,12 -25,25 -52,54l56 -50c-12,18 46,-28 91,-59l-35 35c-13,9 -38,24 -58,39 -20,15 -36,28 -34,28 7,-6 -17,9 -49,32 -31,24 -71,55 -96,80 8,-1 120,-100 76,-50 10,-10 19,-18 26,-24 8,-6 15,-11 22,-16 13,-10 27,-20 51,-40 -44,40 -7,16 -38,46 0,0 19,-16 38,-32 19,-16 40,-31 40,-31 1,0 -6,6 -16,13 -9,8 -21,19 -31,28 -20,17 -31,29 3,7 7,-7 18,-16 31,-26 12,-9 26,-19 39,-28 26,-19 48,-35 47,-38l3 0c64,-39 22,-26 102,-72 0,-1 -4,0 -12,3 -7,4 -18,10 -32,20 -11,8 -17,13 -27,21 -4,4 -10,8 -17,13 -7,5 -16,12 -27,20 -12,6 2,-4 14,-13 13,-9 25,-17 6,-10 -20,7 -122,91 -94,59l62 -43c-1,-3 10,-13 21,-21 10,-9 21,-17 19,-18 19,-14 38,-25 58,-36 19,-12 39,-22 58,-37 15,-13 -19,-3 51,-38 15,-5 36,-14 60,-25 12,-6 25,-12 38,-18 14,-6 28,-12 42,-18 13,-7 27,-13 41,-19 14,-6 27,-12 40,-17 25,-10 47,-19 62,-26 0,0 14,-6 27,-13 14,-5 27,-11 27,-11 -6,-3 -105,41 -71,22 0,0 21,-9 42,-18 22,-7 44,-15 44,-15l-6 5c29,-10 58,-23 84,-32 -26,12 -90,33 -75,35 21,-7 33,-10 44,-13 12,-3 23,-7 42,-13 -8,3 -15,6 -14,6 85,-21 79,-30 100,-38 21,-7 26,-10 21,-10 -4,0 -17,1 -33,5 -31,7 -72,17 -67,12 0,0 15,-5 39,-12 11,-3 25,-7 39,-11 15,-4 31,-8 47,-12 15,-4 31,-7 46,-11 7,-2 14,-4 21,-5 7,-2 13,-3 19,-4 24,-5 40,-8 40,-8 -21,6 -43,12 -34,13 63,-8 2,5 90,-11 -4,-4 23,-9 60,-15 18,-2 38,-5 58,-8 20,-3 39,-5 54,-7 30,1 36,1 -28,6 4,3 27,2 53,0 27,-2 56,-4 71,-4 18,-2 48,-3 67,-5 -26,-2 -15,-7 41,-10l3 -1c-22,-1 -49,0 -76,-1 -27,1 -55,0 -82,2 -55,3 -105,6 -133,13l16 -4c-27,2 -54,5 -81,9 -7,1 -14,2 -21,3 -6,2 -13,3 -19,5 -14,2 -26,5 -39,8 -25,5 -48,10 -67,14 -20,4 -37,7 -50,7 4,-5 -21,4 -20,-3 0,0 -19,6 -38,12 -19,6 -37,13 -37,13l15 -8c0,0 -32,10 -64,19 -16,5 -32,10 -44,14 -12,4 -20,7 -20,7l3 -2c-29,13 -55,24 -78,35 -22,11 -42,21 -60,30 1,3 5,2 -14,12 -10,4 -18,8 -26,11 -7,4 -14,7 -21,10 0,0 0,0 0,0l0 0c-30,12 -51,17 -88,33 0,0 28,-13 56,-26 14,-7 28,-13 38,-18 11,-5 18,-7 18,-7 8,-8 -4,-10 -61,13 23,-11 31,-18 2,-6 -2,2 -73,36 -44,27 -53,26 -123,59 -197,101 -9,5 -18,10 -28,15 -9,6 -18,12 -28,18 -18,11 -37,23 -56,35 -19,13 -37,27 -55,40 -18,14 -36,27 -53,41 50,-40 28,-26 8,-13 -10,7 -19,14 -19,13 0,0 2,-2 8,-7 6,-5 16,-12 30,-23 -11,7 -20,13 -28,18 -7,5 -14,10 -19,15 -11,9 -19,17 -27,24 -15,16 -31,31 -69,65 -5,1 6,-8 19,-19 13,-13 31,-26 38,-35 -34,24 -63,51 -90,76 -28,25 -52,51 -77,77 -12,13 -25,25 -36,38 -12,14 -24,27 -36,41 -12,13 -25,27 -38,41 -12,15 -25,29 -39,45l-9 1c-9,12 -20,24 -30,38 -11,13 -21,27 -32,42zm2451 -842c9,1 13,1 13,1 -203,-36 -371,-46 -481,-51 5,1 15,3 28,5 13,2 29,4 45,6 17,3 34,5 50,7 8,1 16,2 23,3 7,1 13,2 19,3 0,0 -10,1 -21,1 -10,1 -20,1 -20,1l-26 -7 -72 1c20,5 78,9 116,15 2,0 33,2 69,4 18,1 37,2 53,3 17,1 31,3 40,3 0,0 -7,-1 -16,-3 -9,-2 -21,-5 -33,-7 -24,-4 -49,-9 -49,-9 27,4 157,24 208,35 1,-1 -20,-9 -44,-14 -23,-5 -48,-9 -54,-6 -10,-7 92,11 28,-5 40,3 89,16 136,27 5,1 11,3 17,4 6,2 11,4 17,5 11,4 21,7 31,10 20,7 38,12 52,17l7 10c59,23 43,5 113,33 -88,-28 12,13 -58,-10 21,11 -2,7 67,31 30,7 47,15 64,24 9,4 17,8 27,12 9,5 20,9 34,13 34,19 -40,-11 28,21 21,8 36,13 47,17 11,4 18,6 24,8 10,2 11,-1 15,-3 -35,-20 -57,-26 -78,-33 -20,-6 -38,-12 -68,-26 0,0 2,0 5,2 4,1 9,2 15,4 11,4 27,10 43,15 16,5 31,11 43,15 6,2 11,4 14,5 4,1 6,2 6,2 -21,-13 -38,-20 -52,-26 12,6 24,10 35,14 10,4 20,8 29,11 11,4 21,7 30,11 -17,-9 -34,-17 -49,-25 -15,-7 -30,-14 -42,-20 -25,-12 -43,-21 -48,-25l11 1c-23,-15 -65,-27 -84,-32 -16,-7 -32,-12 -47,-18 -15,-5 -30,-9 -43,-13 -26,-8 -46,-15 -52,-19l25 5c-19,-7 -35,-12 -49,-16 -13,-4 -25,-7 -38,-10 -12,-4 -25,-7 -42,-12 -8,-2 -17,-5 -27,-7 -10,-3 -21,-5 -34,-8zm931 476c2,2 6,7 13,15l-43 -29c-18,-14 -34,-28 -50,-42 -16,-13 -32,-26 -48,-38 -16,-12 -31,-25 -48,-35 -17,-11 -34,-21 -53,-30 -16,-11 -27,-21 -37,-29 -9,-8 -17,-15 -24,-22 16,10 31,19 43,28 102,56 123,78 141,95 9,9 16,17 32,30 14,12 36,30 74,57zm-3840 2088c-8,-26 -15,-114 -23,-119 -2,-6 -2,13 -1,34 2,23 3,48 5,75 2,0 3,6 5,14 -2,-26 -1,-44 4,-33 -3,34 2,48 7,63 4,16 10,31 13,68 8,22 -5,-81 -10,-102zm63 414l-9 -13c3,14 7,28 11,42 1,-5 2,-11 -2,-29zm33 127c-1,-2 -2,-3 -3,-6 5,15 10,29 15,44 -2,-6 -5,-17 -12,-38zm-85 -1240c-2,7 -3,13 -4,16l4 -16zm-3 56c13,-63 8,-49 6,-59 -3,22 -7,44 -10,67 2,-9 4,-13 4,-8zm-36 77c-18,113 -25,229 -26,340 0,-13 1,-25 2,-37 2,-12 3,-23 4,-34 2,-22 5,-43 6,-61 6,-35 11,-61 14,-70 3,-9 4,-1 3,29 -1,15 -2,36 -2,64 0,27 -2,61 -2,102l2 21c0,-10 0,-23 0,-37 1,-14 1,-30 2,-46 1,-33 1,-69 4,-103 0,-29 -4,-89 -1,-142 0,-26 0,-51 1,-69 1,-18 1,-29 1,-29 -4,10 -7,22 -8,37 -1,14 -3,31 -6,49l6 -14zm4675 891c-1,5 -1,9 0,12 -1,-3 -2,0 0,-12zm-4299 708c4,6 9,12 13,19l-7 -10c10,17 19,34 30,50 4,5 9,11 14,19 -2,-3 -4,-5 -5,-6 3,5 6,10 10,15 8,9 18,21 29,35 6,7 11,14 18,21 6,7 12,15 19,22 25,29 49,57 61,69 15,15 32,33 47,50 8,9 15,17 22,25 7,7 14,14 20,20 -22,-22 -49,-53 -43,-42 19,26 33,44 52,67 10,11 20,23 34,36 13,14 30,29 51,46 0,0 -11,-11 -23,-22 -6,-5 -12,-11 -16,-15 -4,-4 -7,-7 -7,-7 0,0 2,1 5,4 3,3 7,6 12,10 11,9 25,20 39,32 14,11 28,22 38,31 11,8 18,13 18,13 18,18 3,8 -18,-9 -20,-17 -47,-41 -55,-46 21,18 40,37 59,54 18,17 36,33 52,48 8,7 15,15 22,21 8,7 15,13 22,18 14,11 27,20 39,26 2,9 5,26 66,68 -40,-37 38,22 7,-9 11,6 28,18 42,29 14,10 27,18 30,18l-7 -2c25,19 47,34 65,45 19,13 36,20 51,27 30,14 52,22 77,32 34,17 63,31 89,45 26,12 50,23 74,34 11,5 23,10 34,15 12,5 23,10 35,15 25,9 50,20 78,30 3,5 31,26 78,42 12,1 44,9 76,15 31,7 61,13 67,11 -83,-26 -70,-14 -121,-27 -39,-21 -2,-8 -57,-31 44,21 209,59 259,75l-19 -3c21,6 36,12 51,16 15,5 29,10 44,14 16,5 33,9 56,13 22,4 49,6 84,8 0,0 17,1 34,2 8,1 17,1 23,1 6,0 10,0 10,0 -3,1 -3,2 -5,2 54,4 74,8 95,11 22,2 45,3 105,2 -9,0 -3,1 -13,1 35,3 70,1 102,-1 16,-2 32,-3 47,-4 15,-1 29,-4 42,-5 32,3 -7,6 -27,11 122,-4 251,-33 324,-54 0,0 4,-1 12,-2 7,0 17,-2 26,-4 19,-4 39,-7 39,-7 -23,6 -47,15 -65,20 -17,5 -27,9 -20,10 42,-9 33,-10 93,-23 -9,6 -33,15 -61,26 125,-22 25,-19 114,-28 38,-10 59,-22 62,-27 0,0 18,-4 36,-7 17,-4 35,-8 35,-8 3,-4 25,-13 54,-24 14,-5 30,-11 45,-17 16,-6 31,-12 44,-18 6,-5 -45,12 -65,21 3,-4 59,-30 96,-44 9,4 68,-23 120,-47 52,-25 96,-49 78,-32 40,-20 81,-47 125,-72 21,-13 42,-28 64,-42 21,-14 42,-27 62,-42 20,-15 40,-30 59,-43 19,-14 36,-29 53,-43 16,-13 32,-26 46,-38 14,-12 26,-24 37,-34 15,-11 38,-30 53,-41 14,-12 21,-17 6,2 26,-25 48,-48 69,-69 20,-21 37,-42 55,-62 9,-11 18,-21 27,-31 9,-11 18,-22 27,-33 9,-11 19,-23 29,-35 5,-6 11,-12 16,-18 6,-7 11,-14 17,-21 4,-4 -6,9 -16,22 -11,13 -22,27 -19,27 7,-10 14,-18 21,-27 7,-9 14,-18 21,-27 14,-17 29,-35 44,-53 16,-19 31,-41 48,-64 9,-11 18,-24 27,-37 8,-14 18,-28 27,-43 -13,20 -15,28 -16,31 -3,1 29,-52 48,-84 5,-9 2,-3 -2,4 -4,7 -8,15 -5,11 76,-118 128,-230 172,-345 11,-28 21,-57 32,-86 9,-30 18,-59 28,-90 2,-7 5,-15 7,-22 2,-8 4,-16 6,-24 4,-15 8,-31 13,-47 4,-15 9,-31 12,-48 4,-16 8,-33 12,-50 -9,39 -13,66 -16,83 -3,18 -2,26 -1,27 0,0 5,-19 11,-38 3,-9 5,-19 6,-26 2,-7 3,-12 3,-12 3,-30 18,-86 22,-135 3,-6 8,-29 6,-4 4,-19 8,-37 11,-54 3,-17 5,-34 6,-50 2,-16 3,-32 5,-48 1,-16 2,-32 2,-48 0,-32 1,-65 2,-102 0,-37 0,-77 2,-124 0,0 3,57 5,114 1,28 0,57 0,78 0,22 0,36 0,36l10 -56c0,0 0,25 -1,51 0,12 0,25 0,34 -1,10 -1,16 -1,16 6,-30 6,-58 7,-79 0,-22 0,-37 3,-40 1,12 -2,43 1,44 4,-29 4,-44 4,-58 1,-14 0,-26 0,-48 3,29 1,65 0,104 -1,19 -1,40 -3,61 -2,21 -4,42 -6,64 -4,42 -12,85 -18,125 -6,39 -15,75 -21,105 -3,19 1,-16 1,-20 -6,24 -11,43 -16,64 -6,21 -13,43 -21,73 -5,39 12,-28 21,-57 3,5 -1,20 -10,53 -6,6 -58,180 -84,217 -8,22 -14,37 -18,49 -4,11 -6,18 -8,22 -2,9 1,6 5,3 6,-6 12,-12 -26,69 0,0 -7,11 -15,23 -7,11 -15,22 -15,22 -40,96 -106,215 -175,311l15 -21c7,-15 -10,6 -19,16 -13,17 -26,35 -38,52 -11,17 -24,33 -35,48 -23,30 -43,57 -63,75 -16,21 -34,44 -54,69 -21,24 -43,50 -66,76 -48,51 -98,102 -142,141 -15,7 13,-19 48,-52 17,-17 36,-35 52,-52 17,-17 31,-32 38,-42 0,0 -5,5 -12,12 -7,7 -16,16 -26,25 -19,19 -38,37 -38,37 47,-45 64,-65 87,-97 -32,33 -54,54 -74,77 -11,11 -21,22 -32,34 -12,12 -25,25 -41,40 3,-7 -6,0 -37,26l-5 12c-1,0 -5,3 -15,10 0,0 -30,25 -60,50 -15,13 -31,24 -42,33 -12,9 -20,15 -20,15 14,-9 22,-12 31,-17 9,-4 19,-9 34,-22 -13,7 14,-15 45,-40 -25,25 34,-22 35,-19 -32,25 -68,53 -101,79 -34,25 -64,47 -86,64 0,0 -4,1 -9,2 -4,1 -8,3 -8,3 -34,20 -66,42 -98,61 -31,19 -60,36 -84,48l13 -10c-20,11 -41,21 -61,32 -20,10 -41,21 -60,31 -41,18 -81,36 -120,50 -18,9 -38,18 -59,28 -20,10 -41,20 -62,28 -21,9 -41,17 -60,25 -10,4 -19,8 -28,12 -9,3 -17,6 -25,9 -9,5 -28,10 -53,17 -13,3 -27,8 -42,11 -15,3 -32,6 -48,10 -17,3 -34,7 -51,10 -17,4 -34,6 -51,9 -33,6 -62,12 -85,19 -7,0 62,-17 93,-25 -30,5 -58,12 -80,17 -22,5 -39,7 -49,4 17,-2 30,-3 39,-4 10,-2 16,-3 19,-4 7,-1 3,-2 -3,-2 -11,0 -32,1 -2,-5 -16,3 -32,5 -48,7 -16,2 -32,5 -46,7 -15,2 -28,4 -40,6 -12,2 -22,3 -30,4 13,-1 22,-1 29,-2 6,0 10,0 11,0 4,0 -1,2 -5,4 -9,3 -18,6 35,-2 -41,9 -90,14 -141,19 -26,3 -52,3 -78,4 -26,0 -52,1 -76,0 1,-3 -12,-4 -49,-7l-30 4c-46,-2 90,-3 -3,-7 -12,1 -26,1 -40,1 -15,-1 -30,-2 -46,-3 -17,-1 -33,-2 -50,-4 -8,0 -17,-1 -25,-2 -8,-1 -17,-2 -25,-3 -32,-4 -63,-8 -89,-10 -25,-3 -45,-5 -56,-3 -36,-10 -1,-5 29,-1 8,1 15,1 21,2 5,0 10,0 11,0 4,-1 -4,-2 -30,-9 16,2 33,3 51,5 17,2 35,5 51,7 16,1 31,4 43,4 13,1 22,0 28,-1 -32,-1 -37,-4 -40,-6 -3,-2 -3,-4 -23,-7l-69 -4 15 2c-15,-1 -31,-2 -47,-4 -16,-3 -34,-5 -52,-8 -18,-3 -36,-6 -55,-9 -19,-4 -38,-9 -58,-13 -19,-5 -39,-9 -59,-14 -19,-5 -39,-11 -58,-16 -20,-6 -39,-11 -58,-17 -19,-6 -37,-12 -55,-18 -61,-16 -113,-33 -167,-50 -53,-21 -110,-42 -178,-78 21,8 -7,-7 -29,-20 -11,-6 -20,-13 -21,-15 -1,-2 6,1 28,10 -15,-9 -30,-18 -44,-26 -15,-9 -28,-16 -40,-22 -23,-12 -40,-20 -41,-19 53,33 18,12 63,40 -16,-8 -42,-21 -67,-36 -25,-16 -49,-32 -62,-42 13,9 8,5 12,6 -31,-22 -39,-25 -45,-28 -6,-2 -10,-3 -32,-18 -6,-7 -30,-25 -57,-44 -27,-21 -57,-44 -75,-60 0,0 -4,-3 -10,-6 -5,-4 -13,-9 -20,-14 -15,-10 -30,-21 -30,-21 33,22 -51,-45 -55,-57 -39,-33 -76,-57 -128,-115 24,21 -47,-54 -43,-59 -21,-26 -41,-49 -61,-70 -18,-22 -36,-43 -55,-63 -8,-11 -18,-21 -26,-31 -9,-11 -17,-22 -26,-33 -8,-12 -16,-23 -25,-35 -8,-12 -17,-25 -24,-39 3,3 20,22 1,-10 -9,-12 -20,-28 -31,-45 -11,-17 -22,-35 -30,-48l1 1c0,-1 -1,-1 -1,-2 -8,-13 -13,-21 -14,-20 -16,-22 -28,-38 -43,-61 -15,-22 -32,-51 -58,-97 -1,5 9,27 22,52 13,25 28,53 39,69l22 26c4,16 16,37 28,56 13,19 27,36 32,47 -10,-12 -25,-30 -40,-54 -15,-23 -32,-51 -49,-79 -33,-59 -68,-124 -92,-173 5,16 12,37 22,60 10,23 22,49 36,76 6,14 13,28 21,42 8,14 16,28 24,42 16,29 32,58 50,84 0,0 -7,-12 -14,-25 -3,-6 -6,-12 -9,-17 -2,-4 -3,-8 -3,-8 0,0 2,4 5,9 3,6 7,13 12,20 9,14 18,28 18,28 0,0 -8,-14 -15,-29 -8,-14 -14,-29 -14,-29 7,14 16,27 24,39 8,13 16,25 24,37 7,12 15,24 23,35 8,12 16,24 24,35 -9,-13 -17,-25 -23,-35 -6,-10 -9,-17 -11,-22 -4,-10 -1,-8 9,8 8,17 16,28 23,38 7,9 13,16 18,23 11,13 22,24 38,47 -18,-26 -41,-60 -23,-40 28,48 51,75 72,103 20,27 41,52 71,93 0,-4 5,0 13,8 8,9 19,21 32,34 24,25 50,53 59,56l-32 -35c0,0 18,17 36,34 9,9 19,17 26,23 7,6 12,10 12,10 61,69 -65,-50 33,50 96,87 100,77 180,139 -15,-8 -39,-23 -67,-43 -28,-21 -59,-47 -90,-74l35 35c-5,-4 -15,-11 -26,-21 -6,-5 -13,-10 -20,-16 -6,-6 -13,-13 -20,-19 -14,-14 -29,-28 -43,-41 -14,-13 -27,-25 -36,-36 9,8 15,13 19,17 4,3 6,4 6,4 0,-1 -7,-8 -17,-18 -19,-21 -50,-53 -63,-71 -9,-2 33,42 -19,-7 22,24 36,38 51,54 15,15 30,33 60,63 -33,-32 -56,-56 -75,-74 -20,-19 -36,-31 -50,-44 -14,-13 -28,-26 -45,-43 -8,-8 -17,-18 -27,-30 -10,-11 -20,-25 -32,-41 48,56 -10,-26 -13,-34 -6,-7 -13,-16 -20,-25 -8,-10 -15,-20 -23,-30 -15,-21 -30,-41 -39,-52l8 26c-29,-37 -42,-66 -58,-96 -8,-15 -16,-30 -26,-47 -10,-17 -22,-36 -37,-58 -11,-10 46,83 36,66 -39,-62 -64,-107 -82,-152 -9,-22 -18,-44 -28,-68 -9,-24 -19,-51 -31,-81 -2,-3 -5,-3 -9,-8 -5,-5 -12,-14 -22,-35 10,11 -1,-21 22,26 -15,-42 -37,-89 -52,-124 15,43 10,35 0,14 -10,-21 -23,-55 -27,-62 -15,-46 9,12 20,39 -11,-37 -19,-81 -33,-100 3,-1 14,23 28,56 7,16 15,34 22,53 9,18 17,36 23,52l-16 -44c14,29 16,35 32,79 -13,-44 -7,-41 0,-33 1,6 -2,-2 -1,3 12,36 25,62 24,53 10,14 5,2 -2,-18 -6,-19 -16,-45 -19,-57 -8,-18 -16,-35 -22,-53 0,0 -21,-44 -42,-89 -10,-22 -19,-45 -26,-62 -7,-17 -12,-29 -12,-29 -13,-39 -18,-70 -23,-97 -5,-27 -9,-52 -12,-83l-9 -16c-3,-18 -6,-36 -9,-52 -2,-15 -4,-29 -4,-40 -2,-20 0,-26 7,-3 -2,3 -1,12 2,28 1,2 2,5 4,10 0,1 1,2 1,3 -2,-10 -4,-19 -5,-27 -1,-9 -3,-17 -4,-25 -2,-15 -4,-29 -6,-40 -3,-22 -5,-35 -6,-37 25,130 12,5 25,26 0,0 -1,-8 -3,-21 -2,-12 -5,-28 -6,-45 -4,-33 -7,-66 -7,-66 3,81 -5,2 -8,-26 2,-4 1,-31 0,-63 -1,-15 -2,-32 -3,-48 0,-8 0,-16 -1,-23 1,-7 1,-14 1,-20l1 3c3,-43 3,-118 7,-172 -1,3 -7,-67 -7,-101 -8,46 -9,55 -10,54 -1,-1 -2,-13 -4,-10 1,-9 4,-27 3,-29 0,-13 -4,18 -7,20 -1,25 -2,50 -3,74 -1,12 -2,24 -2,36 -1,11 -1,22 -1,33 1,43 2,79 5,99 5,-30 -2,-52 2,-86 2,25 2,53 2,85 0,32 1,68 2,109l-4 27c0,0 0,6 1,13 1,8 2,18 3,29 2,20 4,41 4,41 -2,-17 -4,-21 -7,-31 -1,-4 -2,-11 -4,-22 -1,-11 -3,-25 -4,-47 -6,11 7,86 9,139 0,0 2,7 5,13 2,7 5,13 5,13 -5,-10 8,103 -7,24 0,0 -1,-8 -3,-21 -1,-6 -2,-13 -4,-21 -1,-7 -2,-15 -3,-24 -3,-32 -7,-65 -7,-65l-2 37c0,0 -2,-28 -5,-56 -1,-14 -2,-28 -2,-38 0,-11 -1,-18 -1,-18l4 26c-8,-179 10,-53 6,-233 -3,-28 -2,-58 -1,-94 1,-36 8,-79 16,-134 -9,80 4,9 5,40 12,-81 13,-109 17,-151 7,-20 13,-34 0,38 7,11 15,-95 27,-99 13,-59 20,-100 28,-133 6,-34 10,-59 15,-86 6,-26 12,-53 24,-91 5,-19 13,-39 23,-64 10,-24 21,-52 37,-84l-1 11c18,-41 33,-78 49,-112 17,-34 33,-65 49,-96 17,-30 34,-60 52,-91 8,-15 19,-31 29,-47 10,-16 20,-33 31,-51 0,0 5,-6 13,-16 7,-10 18,-23 28,-35 21,-26 42,-51 42,-51 -16,25 -56,93 -31,65 -23,23 -41,50 -60,78 -9,13 -19,27 -28,41 -10,14 -18,29 -28,43 -2,7 14,-16 21,-26 -20,36 -35,52 -60,100 3,-2 35,-52 13,-13 0,0 -3,4 -6,10 -4,6 -9,14 -14,22 -9,16 -19,31 -19,31 -11,23 -17,37 -20,48 -4,10 -5,17 -7,24 -3,14 -8,30 -33,82 4,-21 15,-65 33,-106 -11,24 -5,7 2,-10 7,-17 15,-34 3,-13 -8,18 -14,34 -20,48 -6,15 -12,29 -18,43 -6,15 -14,30 -21,47 -7,18 -14,38 -22,62 3,-11 3,-15 12,-38 0,0 -15,34 -29,68 -7,17 -13,35 -18,48 -5,13 -8,22 -8,22 8,-17 0,13 -10,45 -8,32 -16,68 -11,62 6,-19 10,-35 14,-48 5,-14 9,-25 12,-35 7,-19 11,-33 16,-47 9,-30 22,-61 56,-143 -8,24 -17,51 -24,77 -4,13 -7,25 -10,36 -2,11 -4,21 -5,29 0,1 -1,3 -3,9 -3,27 8,2 18,6 9,-40 22,-71 35,-104 7,-16 13,-34 21,-52 8,-18 16,-37 25,-60 1,-9 -7,3 -17,23 -10,19 -23,47 -30,69 0,0 2,-5 4,-12 3,-8 6,-18 10,-27 8,-20 16,-40 16,-40l-5 17c0,0 6,-13 14,-31 9,-18 20,-42 33,-66 12,-24 24,-47 34,-65 4,-9 8,-16 11,-21 3,-5 5,-8 5,-8 -10,17 -15,30 -19,41 -4,10 -7,19 -10,29 13,-25 26,-49 42,-72 -8,2 -10,-4 4,-27 69,-119 120,-177 154,-214 3,-4 7,-9 9,-13 -9,7 2,-15 21,-42 18,-27 40,-61 52,-80 3,6 49,-51 77,-78 5,-11 0,-12 -10,-7 -10,5 -25,17 -43,33 -57,75 -30,44 -50,85 0,0 -22,30 -44,60 -10,15 -20,31 -28,43 -7,12 -12,20 -12,20l14 -31c-11,15 -22,30 -32,44 -4,7 -9,14 -13,20 -5,7 -8,13 -12,19 -14,22 -22,36 -24,32 9,-18 22,-41 36,-62 15,-22 30,-43 39,-61l-31 39c22,-38 30,-46 40,-56 9,-10 21,-21 52,-64 -29,27 5,-8 30,-46 -13,13 -41,50 -65,80 -13,14 -22,28 -29,36 -7,8 -10,9 -8,1 14,-24 46,-58 77,-95 16,-19 33,-37 49,-54 15,-18 29,-35 39,-51l-2 4c37,-40 62,-66 80,-88 18,-21 31,-36 44,-52 9,-7 18,-16 28,-25 10,-9 19,-19 30,-28 20,-19 41,-38 60,-55l1 3c0,0 3,-3 8,-7 5,-5 11,-10 18,-16 14,-11 28,-22 28,-22 -12,13 -28,25 -47,40 -18,15 -40,32 -63,52l10 0c-29,20 -49,41 -67,61 -9,10 -17,21 -25,31 -5,5 -9,10 -13,15 -4,5 -8,10 -12,16 12,-16 29,-32 47,-49 18,-17 36,-35 53,-52 36,-31 66,-59 69,-69 0,0 3,-2 7,-4 3,-3 8,-6 14,-9 10,-7 21,-13 21,-13l17 -16c31,-19 5,9 -48,54 -10,7 -15,10 -13,7 -11,11 -22,23 -37,38 -7,7 -16,15 -27,25 -10,10 -22,22 -36,35l28 -31c-18,17 -35,33 -51,49 -8,8 -16,15 -24,23 -7,7 -14,15 -20,22 -26,29 -45,52 -55,66 97,-102 199,-194 303,-276 11,-17 24,-34 37,-50 12,-15 23,-29 27,-39 18,-14 38,-29 58,-43 21,-14 43,-28 65,-42 11,-7 21,-14 32,-21 11,-6 22,-12 32,-18 21,-11 40,-22 58,-30l-5 5c16,-9 33,-17 48,-25 15,-8 29,-15 42,-23 37,-15 -22,19 4,7 0,0 7,-3 17,-9 5,-3 12,-6 18,-10 7,-3 14,-7 21,-10 29,-15 58,-29 58,-29 -3,4 -29,18 -59,32 -16,8 -32,16 -48,24 -15,8 -30,16 -41,22 9,-5 25,-15 20,-13 -14,7 -30,15 -47,24 -17,9 -33,21 -50,30 -32,21 -62,37 -75,41 -24,17 47,-37 -36,16 -29,17 -47,29 -58,39 -11,9 -15,15 -17,18 1,2 22,-13 41,-23 18,-10 33,-18 19,-7 43,-28 57,-43 115,-72 -44,24 -97,67 -123,77 -10,8 -19,14 -25,20 -7,6 -13,11 -17,16 -8,9 -12,14 -12,17 0,5 15,0 34,-13 -12,1 149,-103 36,-38 23,-18 57,-43 94,-65 19,-12 38,-23 57,-35 18,-11 37,-21 54,-31l-3 3c0,0 21,-11 42,-22 21,-12 43,-22 43,-22 -12,7 -37,21 -36,25 0,0 7,-5 17,-11 11,-6 26,-14 40,-21 30,-16 59,-31 59,-31 -33,17 -22,14 1,4 23,-10 59,-23 76,-28 11,-10 58,-32 11,-17 -54,18 -30,15 -77,34l64 -34 6 -1c0,0 10,-6 20,-11 4,-3 9,-6 13,-8 3,-2 6,-3 6,-3 93,-31 -36,28 81,-18l-18 -3c17,-6 35,-12 54,-17 18,-5 37,-10 57,-15 19,-5 38,-10 57,-14 20,-4 39,-8 58,-12 20,-4 38,-8 56,-12 19,-3 36,-5 53,-8 17,-3 33,-6 48,-9 8,-1 15,-2 22,-4 7,-1 13,-2 20,-3 -14,4 -24,9 -25,12 -1,4 6,5 25,5 -5,1 -11,2 -18,2 -7,1 -14,3 -21,4 -16,2 -33,5 -50,8 -18,4 -36,7 -53,10 -18,4 -34,8 -50,12 -6,1 13,-6 41,-15 29,-8 68,-16 102,-22 -17,-3 -60,6 -99,16 -38,11 -74,21 -79,15 -172,40 -123,46 -267,86 1,7 -38,19 -43,27 43,-9 186,-67 281,-88 -9,2 -27,9 -31,11 34,-9 57,-14 78,-19 21,-6 40,-11 63,-17l-6 0c40,-11 53,-12 62,-11 9,1 14,3 39,0 9,-2 30,-6 48,-8 18,-3 32,-5 27,-7 0,0 22,-1 44,-3 11,0 23,-1 31,-1 8,-1 14,-1 14,-1l-5 -6c50,-5 61,-1 107,-9l1 -6c0,0 -31,2 -62,4 -16,0 -32,1 -43,2 -6,0 -11,1 -15,1 -3,1 -5,1 -5,1 63,-8 17,-8 87,-15 -78,13 55,-1 63,6l52 -5 -14 2c21,1 33,0 45,-1 13,-1 27,-4 51,-2 -7,-1 -14,-1 -21,-2 -6,0 -12,-1 -18,-1 -13,0 -25,-1 -37,-1 -13,0 -26,0 -40,0 -14,1 -30,1 -47,4 12,-2 29,-3 46,-4 17,-2 35,-3 53,-4 18,-1 34,-3 48,-3 14,0 26,0 32,0 27,-1 50,1 73,2 11,1 22,2 34,3 11,2 23,3 36,4 -49,-2 -41,3 -45,7 -4,3 -20,6 -117,1 4,-1 20,0 26,1 -13,-5 -42,-6 -73,-3 -32,2 -65,6 -85,8 10,4 -33,6 41,7 -12,-1 3,-4 31,-6 14,-1 31,-3 48,-3 18,0 37,1 55,2l-13 10c0,0 26,1 51,2 13,0 26,1 35,2 10,1 16,1 16,1l-9 0c38,9 109,6 179,20 51,0 243,42 163,15 30,10 59,16 89,22 31,5 61,11 95,20 0,0 -21,-7 -41,-14 -11,-3 -21,-6 -29,-8 -8,-3 -13,-4 -13,-4 26,3 43,8 55,11 13,2 21,4 29,6 16,3 29,5 70,11 7,6 24,14 7,11 33,12 69,23 106,37 36,15 74,29 109,44 35,16 69,31 99,43 29,14 54,25 73,33 22,11 38,20 53,30 14,10 27,19 41,28 13,9 28,19 47,31 18,12 41,26 70,44 13,7 9,2 12,2 1,0 4,1 12,5 7,4 18,12 36,26 5,4 -75,-44 7,14 16,8 32,19 49,31 17,13 33,27 51,41 17,14 35,28 53,44 17,15 35,30 54,44 9,9 20,19 30,29 11,10 21,21 30,30 18,18 29,31 21,27 -55,-57 -140,-127 -155,-135 11,4 -41,-37 6,-4 -45,-38 -61,-49 -75,-59 -15,-11 -29,-19 -71,-51 -7,-2 41,37 60,49 -2,3 -45,-26 -78,-49 -17,-11 -31,-20 -38,-23 -6,-2 -2,1 15,17 92,65 128,72 198,141 -16,-11 -36,-27 -57,-42 -21,-16 -43,-33 -66,-44 0,0 4,3 10,8 6,5 13,11 21,18 15,13 30,26 30,26 0,0 13,8 25,15 6,4 12,8 17,11 4,3 7,5 7,5l-3 -1c25,25 45,42 61,55 8,7 15,12 22,17 6,6 13,11 19,15 12,10 24,18 40,30 15,12 33,26 55,49 -47,-57 23,2 -14,-40 31,30 56,57 73,77 9,10 15,18 19,25 4,6 6,10 4,11 -7,-7 -13,-13 -18,-19 -6,-5 -11,-10 -15,-13 -8,-8 -14,-13 -18,-17 -8,-7 -10,-6 -11,-6 -2,2 -3,3 -57,-46 7,9 -1,5 -4,7 -2,1 2,8 31,39 72,67 -15,-26 54,43 4,5 7,10 4,8 33,31 33,41 72,79l-9 -9c5,7 9,13 13,18 4,5 8,10 12,14 6,9 13,15 18,22 12,12 23,24 39,49 -5,-11 2,-5 13,9 11,13 26,32 37,46 -31,-49 -43,-81 -117,-170 -13,-8 -10,0 -43,-34l50 56c-11,-12 -20,-20 -31,-31l-45 -56c63,67 39,32 68,58 7,8 13,15 18,21 5,6 9,12 12,16 7,9 12,15 16,20 9,10 15,18 31,39 -7,-1 87,138 133,224 -8,-13 -19,-29 -24,-38 -42,-57 21,43 20,47l29 42c-6,-8 -14,-19 -4,1 36,59 40,52 73,113 -1,7 -33,-43 -16,-3 2,7 6,22 16,45 8,24 21,56 42,97 1,2 5,9 10,18 4,10 9,21 14,34 -1,-4 -3,-8 -4,-9l18 57c-13,-22 -21,-47 -30,-71 -9,-25 -20,-49 -33,-71l-8 -1c-16,-37 -44,-85 -58,-105 14,27 22,44 31,61 9,17 18,35 33,66 0,10 -23,-32 -26,-38l8 7c-14,-38 -31,-64 -47,-92 -9,-15 -17,-29 -27,-46 -10,-16 -22,-35 -34,-57 -7,-13 -2,-5 1,-3 -23,-34 -45,-68 -66,-102l-17 -26c-5,-8 -11,-16 -17,-24 -12,-16 -24,-32 -38,-47l18 19c-8,-10 -19,-23 -31,-38 -12,-15 -27,-31 -42,-49 -8,-8 -15,-17 -24,-26 -4,-5 -8,-10 -12,-14 -4,-5 -9,-10 -13,-14 -18,-18 -36,-37 -55,-56l-2 1c3,5 -2,0 -9,-9 -7,-8 -18,-19 -25,-27l0 0c-19,-18 -38,-36 -55,-52 -19,-16 -36,-31 -52,-45 8,11 20,23 34,37 14,9 78,80 74,66 14,17 33,39 52,60 18,20 36,39 45,53 -17,-25 -9,-18 4,-4 13,14 32,35 36,38 5,10 18,27 30,42 11,15 19,27 15,26 5,10 -14,-27 -33,-44 -21,-23 -4,0 11,22 15,22 28,43 4,12 62,77 131,188 184,275l-26 -51c23,39 72,135 74,143 -17,-29 -34,-65 -55,-102 -6,0 47,92 46,98 0,0 4,6 10,16 6,11 14,24 21,38 16,28 31,55 31,55l-22 -50c4,7 10,20 17,35 4,8 8,16 12,25 3,10 7,20 11,30 7,20 15,42 23,64 9,22 15,44 22,64 -12,-21 -22,-52 -36,-86 -13,-35 -26,-75 -47,-115 -30,-58 9,40 -19,-15 5,15 22,51 32,69l7 23c-13,-24 -33,-64 -54,-106 -10,-22 -22,-43 -34,-64 -11,-21 -23,-40 -33,-58 4,6 7,11 9,13 -6,-14 -14,-28 -21,-42 -8,-14 -15,-27 -23,-41 -15,-28 -33,-53 -50,-78 15,28 24,38 34,53 0,3 -32,-45 -45,-62 28,49 1,11 19,42 -10,-15 -19,-29 -29,-44 -9,-14 -19,-30 -32,-49 -11,-20 15,14 15,8 -14,-19 -23,-33 -33,-50 -10,-17 -21,-36 -44,-61 54,72 -22,-14 -43,-36l9 12c-10,-10 -19,-20 -27,-29 -8,-9 -14,-18 -19,-27 26,26 46,56 43,45 -7,-10 -15,-19 -23,-29 -8,-9 -17,-19 -27,-28l19 16c0,0 -20,-22 -40,-45 -19,-23 -41,-44 -41,-44 -16,-12 -42,-31 -58,-38 -17,-24 -49,-49 -69,-67l10 8c-9,-10 -21,-22 -35,-35 -14,-12 -29,-25 -43,-37 -15,-12 -28,-23 -39,-31 -11,-8 -18,-13 -21,-13 -7,-7 4,-1 20,9 16,10 38,26 54,37 16,10 27,16 20,9 -3,-4 -10,-11 -23,-22 -14,-12 -31,-29 -59,-49 -80,-63 -56,-31 -106,-61 0,0 4,1 -1,-3 -36,-27 -41,-26 -73,-45 22,16 53,39 64,45 -7,-2 -26,-16 -47,-31 -21,-15 -45,-30 -60,-37 41,17 -71,-49 -40,-34 -18,-12 -38,-23 -57,-34 -19,-11 -37,-22 -56,-30 -37,-17 -69,-31 -91,-39 -26,-16 -50,-27 -78,-39 -15,-6 -30,-11 -48,-18 -18,-7 -37,-15 -59,-25 13,6 39,15 58,23 54,15 -92,-39 -11,-13 -17,-6 -2,2 16,8 31,11 59,22 53,16 0,0 -4,-2 -11,-6 -7,-3 -15,-8 -25,-12 -18,-8 -36,-17 -36,-17l27 9c0,0 -28,-13 -55,-26 -14,-6 -28,-13 -39,-17 -10,-4 -17,-7 -17,-7 -4,0 7,5 12,8 -132,-51 -290,-86 -412,-105 -3,1 -10,1 -20,1 -10,0 -24,0 -39,-1 -31,-2 -71,-8 -113,-10 -22,-1 -44,-3 -65,-4 -6,-1 -11,-1 -16,-1 -6,0 -11,0 -16,-1 -11,0 -21,0 -31,0 -41,0 -77,0 -102,4 27,-6 41,-14 25,-18 22,0 68,-5 118,-3 8,3 70,11 30,11 139,9 -18,-9 23,-12 -19,-1 -37,-3 -55,-3 -17,0 -34,1 -50,1 -32,0 -61,0 -88,3 -27,2 -52,5 -77,7 -6,0 -12,1 -18,1l-18 3c-12,1 -24,3 -36,4l-3 -2c0,0 -18,3 -36,5 -10,1 -19,2 -25,3 -7,1 -12,2 -12,2 30,-3 45,0 42,2 -3,2 -23,4 -61,8l9 -2c-22,1 -56,6 -92,11 -36,7 -76,15 -110,21 0,0 -2,1 -7,2 -4,1 -9,3 -15,5 -11,4 -22,8 -22,8 -67,15 -72,5 -95,6 -52,15 -93,27 -129,43 -36,15 -68,28 -102,45 -9,2 -25,8 -42,14 -9,3 -18,6 -28,9 -9,4 -17,7 -25,10 -32,13 -50,19 -12,-1 -22,11 -36,20 -49,29 -12,8 -21,15 -33,24 -11,9 -25,18 -45,29 -10,5 -22,11 -36,18 -14,7 -30,15 -49,24l36 -26c-70,40 -151,91 -220,143 -17,13 -34,25 -50,37 -15,12 -30,24 -43,34 -27,21 -49,39 -63,50 17,-25 -23,4 -72,41 -47,39 -102,86 -117,92 8,-4 -33,41 -37,49 -5,4 -12,10 -19,17 -7,7 -14,16 -21,26 22,-23 18,-12 17,-7 0,5 2,2 41,-43 -8,13 -18,26 -28,41 -10,15 -21,31 -34,49 -27,34 -57,77 -98,128l-4 -5 66 -81c-5,3 1,-7 10,-18 9,-12 21,-27 28,-36 -17,18 -29,31 -38,41 -8,10 -14,15 -17,19 -8,7 -7,3 -7,0 2,-7 3,-13 -58,66 -8,19 -2,7 -31,51 14,-20 13,-26 -10,6l-18 33c-23,27 -10,1 7,-24 17,-26 34,-52 14,-30 10,-16 22,-36 35,-55 14,-19 27,-38 39,-54 23,-33 39,-55 28,-48 -11,11 -20,22 -27,32 -7,9 -13,18 -19,26 -10,15 -18,28 -25,40 -15,26 -29,53 -69,106l-10 10c-24,40 -23,49 -34,73 -3,0 -11,9 -26,35 -8,18 -15,35 -23,50 -7,16 -14,30 -20,45 -12,29 -24,58 -36,92 20,-43 35,-74 48,-98 13,-24 24,-41 35,-59 22,-36 46,-71 98,-155 -16,27 -88,145 -84,158l-4 -5c-30,57 -57,115 -93,187 0,0 4,-12 9,-24 4,-11 9,-22 9,-22 -12,24 -21,46 -31,67 -10,20 -19,40 -29,58 -16,38 -32,74 -41,115 10,-28 19,-50 25,-67 -19,51 -41,116 -60,173 0,0 -6,30 -12,60 -3,15 -6,31 -8,42 -1,11 -3,19 -3,19 -2,-2 -20,74 -17,36 -6,22 -10,40 -14,57 -3,17 -5,32 -6,46 -3,28 -5,51 -8,76 -9,45 -7,25 -4,-7 4,-31 11,-76 8,-81 -6,31 -13,62 -17,93 -4,31 -8,61 -11,90 -3,29 -4,56 -5,80 0,25 -2,46 0,64 2,-25 5,-38 6,-36 -1,2 -3,15 -4,32 0,16 -1,36 -1,50l4 19c-4,47 -7,40 -9,0 0,12 0,23 0,35 0,12 2,25 3,37 1,25 2,49 0,73 -2,-19 -3,-40 -4,-60 0,-21 -2,-42 -1,-61 1,-39 3,-73 2,-93 0,40 -1,70 -3,96 -1,12 -1,24 -2,36 0,11 -1,22 -1,34 -1,23 -2,47 -1,78 2,31 4,69 10,120 -1,2 -10,-31 -5,8 13,90 12,22 20,50 -6,-35 -10,-60 -10,-82 -1,-22 -1,-40 0,-60l5 18c-1,3 1,46 2,59l8 11c-4,-3 -5,14 -5,38 1,11 2,25 4,39 0,7 1,15 2,22 2,7 3,14 5,20 -3,-27 -2,-38 -1,-43 1,-5 3,-5 6,-14 8,38 11,59 13,82 1,12 2,23 5,38 2,14 5,30 13,50 -5,-5 -20,-79 -10,-15 12,53 16,45 26,79 -15,-38 -18,-26 -35,-68 -3,-12 -5,-21 -6,-29 -1,-8 -3,-13 -3,-18 -2,-10 -3,-14 -4,-19 -2,-9 -4,-18 -14,-64l9 79c-15,-80 -17,-57 -21,-63 18,139 29,102 47,190 14,41 -18,-83 1,-18 5,21 8,32 10,39 2,7 3,9 5,12 3,6 7,12 21,57l-7 -14c4,28 16,55 27,86 7,17 9,5 15,7 3,1 8,6 14,18 3,7 7,15 11,27 3,6 5,12 8,19 3,7 6,15 9,24 -4,-7 -6,-9 -7,-8 0,0 -1,-2 -4,-5 -3,-4 -7,-8 -11,-14 -10,-11 -22,-26 -34,-42 -12,-15 -24,-31 -33,-42 -5,-6 -8,-11 -11,-14 -2,-4 -4,-6 -4,-6 5,19 12,37 18,56 7,19 13,39 20,58 14,39 30,78 45,118 9,20 17,40 26,60 5,10 9,20 13,30l7 16 7 14c10,20 20,40 30,60l15 30 16 30c6,21 -12,-6 -31,-37 -17,-31 -36,-67 -36,-61 0,0 -2,-4 -5,-11 -3,-7 -8,-16 -12,-26 -8,-19 -16,-38 -16,-38 1,1 7,11 13,25 4,6 7,14 11,22 4,8 9,15 12,23 16,29 28,49 14,14 -66,-128 -87,-190 -140,-317 2,21 16,65 36,112 10,23 20,49 30,73 11,24 21,47 28,68 -14,-34 -29,-62 -42,-91 7,20 16,40 25,60 9,20 17,40 26,61 10,20 21,41 31,62 10,20 20,42 32,63l13 17c-8,-14 -15,-27 -21,-39 -6,-12 -11,-22 -16,-31 -9,-18 -14,-30 -15,-32 9,19 19,37 28,54 9,16 19,30 27,43 17,24 29,39 34,40l-7 -14 17 26c10,17 21,34 31,51z"/>
  <path class="fil1" d="M12440 8434c3,5 7,12 10,19 3,8 7,16 10,22 6,14 11,24 12,19 -2,1 -12,-22 -20,-41 -8,-19 -16,-35 -12,-19z"/>
  <path class="fil1" d="M12461 8497c2,3 3,0 12,23l-26 -63 14 40z"/>
  <path class="fil1" d="M12453 8574c15,31 24,51 41,103 -5,23 -31,-83 -50,-103 15,48 28,78 40,105 12,29 22,55 34,94 -2,-10 -6,-27 -11,-48 -5,-21 -11,-45 -19,-67 -15,-45 -30,-85 -35,-84z"/>
  <path class="fil1" d="M12422 8538c0,0 6,13 12,25 3,6 6,13 8,18 2,4 3,8 3,8l-1 -6c0,0 -1,-3 -4,-8 -2,-5 -5,-11 -7,-17 -6,-13 -12,-25 -12,-25l1 5z"/>
  <path class="fil1" d="M11800 7497c-2,-6 -33,-26 -48,-37 12,10 28,24 48,37z"/>
  <path class="fil1" d="M11999 11095c0,0 18,-21 47,-51 14,-14 29,-33 46,-53 8,-10 17,-20 26,-30 9,-10 17,-21 26,-32 16,-22 33,-44 49,-64 4,-5 8,-10 12,-15 3,-5 7,-10 10,-15 7,-10 13,-19 19,-27 12,-17 22,-31 29,-41 7,-10 10,-16 10,-16 -36,52 -70,103 -114,157 -10,14 -21,28 -33,42 -12,15 -25,30 -38,45 -13,15 -26,32 -42,48 -15,16 -31,34 -47,52z"/>
  <path class="fil1" d="M10467 6973c8,0 15,1 21,1 7,1 14,1 20,2 13,1 25,2 37,3 23,1 44,3 65,4 22,3 43,6 66,9 12,2 24,3 37,5 7,1 13,2 20,3 7,2 14,3 21,5 -19,-6 -36,-9 -53,-13 -16,-3 -31,-5 -46,-8 -14,-2 -27,-4 -40,-5 -13,-1 -26,-2 -38,-3 -24,-2 -48,-3 -73,-6 -26,-2 -54,-4 -87,-9l50 12z"/>
  <path class="fil1" d="M10512 6946c4,3 1,4 -6,4 -8,0 -19,0 -31,0 -23,0 -47,0 -38,4 79,4 37,-5 109,4l-34 -12z"/>
  <polygon class="fil1" points="10995,7178 10962,7170 10988,7178 "/>
  <polygon class="fil1" points="9974,6953 9987,6949 9927,6954 "/>
  <path class="fil1" d="M9999 6946c0,0 -3,1 -6,2 -3,0 -6,1 -6,1 0,0 3,-1 6,-1 3,-1 6,-2 6,-2z"/>
  <polygon class="fil1" points="10949,7179 10996,7196 11021,7201 "/>
  <path class="fil1" d="M10520 7046l45 3c-9,0 -71,-11 -45,-3z"/>
  <polygon class="fil1" points="9618,7015 9562,7034 9568,7033 9623,7014 "/>
  <path class="fil1" d="M10162 7051c16,3 -7,3 -25,4 -10,1 -18,1 -20,2 -1,0 3,0 19,1 57,-2 34,-4 26,-7z"/>
  <path class="fil1" d="M9495 7131c-7,3 -14,5 -22,8 9,-3 16,-6 22,-8z"/>
  <path class="fil1" d="M9495 7131c12,-4 24,-7 34,-10 11,-4 21,-6 29,-9 -30,5 -40,11 -63,19z"/>
  <path class="fil1" d="M9235 7236l21 -9c-20,12 -10,7 7,-3 22,-10 20,-11 22,-13 4,-3 8,-6 12,-8 -6,3 -12,7 -17,9 -33,15 -53,25 -45,24z"/>
  <path class="fil1" d="M8345 7806c57,-63 72,-79 72,-72 57,-58 43,-54 75,-90 -31,33 -50,53 -71,74 -20,22 -41,47 -76,88z"/>
  <path class="fil1" d="M8492 7644c7,-8 14,-14 23,-23 -10,9 -17,16 -23,23z"/>
  <path class="fil1" d="M9555 7163c0,0 -3,1 -8,3 -4,3 -9,5 -15,8 -11,6 -23,11 -23,11l17 -6c0,0 8,-4 14,-8 4,-2 7,-4 10,-6 3,-1 5,-2 5,-2z"/>
  <path class="fil1" d="M8264 7904c10,-12 26,-32 35,-41 -1,-6 -45,53 -35,41z"/>
  <path class="fil1" d="M8540 7715c7,-5 44,-42 60,-56 -22,21 -47,32 -60,56z"/>
  <path class="fil1" d="M8143 8116c8,-13 24,-32 21,-21 11,-20 21,-51 -21,21z"/>
  <path class="fil1" d="M8438 7825l9 -7c0,0 8,-12 17,-23 4,-5 9,-11 12,-15 3,-4 6,-7 6,-7 0,0 -3,4 -8,8 -4,5 -9,12 -15,18 -10,13 -21,26 -21,26z"/>
  <path class="fil1" d="M8620 7725c42,-46 -79,59 -5,-18 -13,12 -23,20 -30,27 -6,6 -10,11 -13,13 -4,6 -2,5 2,3 6,-4 17,-10 -19,27 42,-43 68,-57 65,-52z"/>
  <path class="fil1" d="M8555 7777c-6,6 -13,12 -20,20 8,-8 15,-15 20,-20z"/>
  <path class="fil1" d="M8053 8491c3,-9 4,-15 6,-20 -2,7 -4,13 -6,20z"/>
  <path class="fil1" d="M8352 8028c0,0 12,-20 24,-40 12,-19 25,-39 25,-39 -36,51 -123,181 -110,177 7,-10 14,-21 21,-32 7,-11 15,-22 22,-32 14,-21 25,-39 31,-50l-13 16z"/>
  <path class="fil1" d="M7807 8978l4 -42 -10 52c4,-15 5,13 6,-10z"/>
  <path class="fil1" d="M7799 8998l2 -10c0,2 -1,6 -2,10z"/>
  <path class="fil1" d="M8123 8327c14,-27 25,-48 37,-74 -7,10 -43,77 -37,74z"/>
  <path class="fil1" d="M7787 9276c0,0 0,-17 1,-35 1,-17 2,-35 2,-35 0,0 -1,19 -2,39 -1,9 -1,18 -1,26 -1,7 -1,12 -1,12l1 -7z"/>
  <path class="fil1" d="M7781 9603l0 12c0,0 0,3 1,9 1,5 1,12 3,20 2,14 5,28 5,28l0 -12c0,0 -1,-4 -2,-9 -1,-5 -2,-12 -3,-20 -2,-14 -4,-28 -4,-28z"/>
  <path class="fil1" d="M7934 9188c3,-44 2,-80 -1,-68 0,0 -1,5 -2,13 0,4 -1,9 -2,14 0,5 0,10 -1,16 -1,21 -3,43 -3,43 4,-11 4,-17 4,-26 1,-5 0,-11 1,-18 0,-8 1,-17 3,-30 0,0 0,4 0,9 -1,5 0,12 0,19 0,14 1,28 1,28z"/>
  <path class="fil1" d="M9065 11544c-19,-6 -106,-58 -108,-65 12,6 61,31 32,13 0,0 -4,-2 -11,-5 -7,-3 -16,-7 -25,-12 -18,-8 -37,-17 -37,-17 -85,-62 74,34 122,54 -23,-14 -42,-24 -59,-34 -17,-10 -33,-19 -48,-28 -15,-9 -31,-18 -49,-29 -17,-10 -36,-24 -60,-40 27,20 43,35 57,46 0,2 -6,0 -15,-6 -9,-5 -22,-14 -37,-24 -14,-10 -31,-22 -48,-34 -16,-12 -32,-26 -48,-38 37,33 13,18 -17,-2 -5,-4 -8,-6 -11,-8 -3,-2 -7,-4 -10,-6l7 5c-1,1 0,3 5,8 26,19 47,38 67,53 20,16 38,31 55,43 -7,-9 -3,-8 7,-2 11,7 27,19 47,31 39,26 88,59 112,70l52 29 20 11c3,3 -3,1 -34,-14 6,3 16,9 28,15 11,6 24,12 36,18 24,11 43,20 40,17 0,0 12,6 30,15 19,9 44,20 69,31 24,11 49,23 68,30 19,7 32,12 32,12 6,3 12,6 16,9 8,2 9,2 8,1 0,0 14,6 38,15 25,8 60,20 102,34 21,7 45,13 69,20 12,4 25,7 38,11 6,2 13,3 19,5 7,2 14,3 21,5 27,6 55,13 83,19 14,4 29,6 43,9 15,2 29,5 44,7 15,3 29,6 44,8 14,3 29,4 43,6 29,4 58,7 85,11 28,2 55,4 80,6 26,2 50,4 72,4 44,1 81,2 107,2 26,0 41,-1 41,-1 -47,2 -87,-3 -135,-6 36,-2 16,-3 -10,-4 -26,-1 -58,-4 -48,-7 17,1 37,1 56,1 19,1 38,2 52,3 11,-3 -29,-8 -25,-12 -29,-2 -52,-2 -73,-2 -20,-1 -37,0 -54,0 -17,0 -34,1 -54,1 -20,-1 -42,-4 -71,-8 5,-4 41,-3 -34,-12l19 1c-15,-1 -28,-2 -39,-3 -11,-2 -20,-4 -28,-6 -15,-3 -25,-6 -34,-8 -17,-5 -29,-7 -68,-9l3 -6c-27,-3 -67,-11 -107,-20 -40,-10 -80,-22 -110,-29l4 0c-163,-47 -92,-26 -269,-95 0,0 5,2 13,5 8,3 18,6 29,9 21,6 42,13 42,13 -60,-27 -77,-26 -119,-46 3,0 -5,-9 36,8 0,0 -13,-5 -33,-13 -20,-8 -48,-18 -74,-30 -26,-12 -52,-24 -72,-33 -10,-4 -18,-8 -24,-11 -5,-3 -8,-5 -8,-5 -51,-23 7,10 13,16z"/>
  <path class="fil1" d="M8822 11381c-9,-8 -21,-16 -34,-25 13,9 24,17 34,25z"/>
  <path class="fil1" d="M10353 11851l-66 1c20,0 42,0 66,-1z"/>
  <path class="fil1" d="M8557 11181c27,30 -25,-17 -32,-20 0,0 26,24 53,49 27,24 54,48 54,48 1,-2 14,5 13,1 0,0 -22,-19 -45,-38 -11,-10 -22,-20 -30,-27 -8,-8 -13,-13 -13,-13z"/>
  <path class="fil1" d="M8661 11289c4,2 18,10 32,20 0,0 -4,-3 -10,-8 -6,-5 -13,-11 -21,-17 -15,-13 -30,-26 -30,-26 -1,2 5,9 29,31z"/>
  <path class="fil1" d="M8733 11179c0,0 5,4 9,8 5,4 9,8 9,8l31 21c0,0 -13,-9 -25,-18 -6,-4 -12,-9 -17,-13 -4,-3 -7,-6 -7,-6z"/>
  <path class="fil1" d="M9037 11409c-12,-9 -30,-20 -46,-31 -17,-10 -33,-19 -41,-24 27,17 34,22 42,28 4,2 8,5 14,9 7,4 16,10 31,18z"/>
  <polygon class="fil1" points="8991,11334 9043,11365 9039,11361 "/>
  <path class="fil1" d="M10834 11756c10,-3 20,-5 30,-8 -14,4 -23,6 -30,8z"/>
  <path class="fil1" d="M10292 11833c153,3 -100,9 -52,17l83 -6 -7 3c0,0 26,-1 51,-2 26,-2 51,-4 51,-4 -21,-2 -37,-2 -32,-6 67,-4 78,-4 84,-3 7,1 9,5 58,1 0,0 38,-5 76,-10 19,-2 37,-7 51,-9 14,-2 24,-4 24,-4l-12 3c12,-2 18,-4 22,-5 0,0 8,-1 22,-4 6,-1 15,-3 24,-5 10,-2 21,-4 32,-7 24,-6 51,-12 80,-19 29,-7 60,-17 91,-26 15,-4 30,-8 45,-13 15,-5 30,-11 44,-15 14,-5 28,-10 41,-15 6,-2 13,-4 19,-6 6,-2 12,-5 17,-7 45,-18 75,-30 75,-30 21,-9 28,-13 28,-15 0,-1 -6,1 -14,3 -16,4 -35,8 -4,-7 -99,42 -252,86 -259,95 3,-2 9,-6 -12,-1l-58 24 58 -14c-15,6 -38,14 -65,22 -27,7 -59,15 -89,22 -31,8 -62,11 -86,16 -25,3 -45,6 -54,6 57,-11 70,-16 89,-21 20,-5 44,-13 123,-28 -8,-1 -37,2 -2,-7 -23,5 -46,11 -68,16 -11,3 -22,5 -33,8 -11,2 -22,4 -33,6 -45,8 -88,17 -133,21 -22,3 -44,6 -66,9 -23,3 -45,4 -68,7 -23,2 -46,4 -69,6 -24,1 -48,3 -72,4z"/>
  <path class="fil1" d="M11974 11111l-1 1c2,-2 3,-3 1,-1z"/>
  <path class="fil1" d="M11928 11153c0,0 -15,18 -30,35 -8,9 -16,17 -22,23 -6,6 -10,11 -10,11 0,0 27,-24 53,-49 25,-24 51,-49 51,-49 0,0 1,-3 2,-6 0,-3 1,-6 1,-6 -8,10 -42,47 -57,59l12 -18z"/>
  <path class="fil1" d="M11789 11294c14,-11 24,-21 30,-28 6,-7 9,-11 10,-13 1,-4 -9,1 -25,13 48,-47 31,-18 61,-54 -4,-3 -64,54 -79,67l3 15z"/>
  <path class="fil1" d="M11331 11584l17 -12 -46 23c0,0 7,-3 14,-5 7,-3 15,-6 15,-6z"/>
  <path class="fil1" d="M11348 11572l45 -22c-4,0 -8,-1 -16,2l-29 20z"/>
  <path class="fil1" d="M11510 11486c18,-10 38,-23 63,-38 0,0 -16,9 -32,19 -8,5 -16,10 -22,13 -5,4 -9,6 -9,6z"/>
  <path class="fil1" d="M11459 11514l1 0 50 -28c-19,10 -35,19 -51,28z"/>
  <path class="fil1" d="M11393 11550c5,0 10,1 22,-4 12,-5 30,-14 62,-33l-17 1c0,0 -16,9 -33,18 -17,10 -34,18 -34,18z"/>
  <polygon class="fil1" points="9379,11542 9431,11560 9426,11557 9374,11539 "/>
  <path class="fil1" d="M9678 11644c14,2 24,3 33,4 -14,-2 -25,-4 -33,-4z"/>
  <path class="fil1" d="M9914 11655c63,13 -88,-4 29,13 5,3 -7,4 -27,3 -10,0 -21,-1 -34,-3 -13,-2 -27,-4 -40,-7 5,-4 54,7 21,-4 -38,-1 -51,-7 -39,1 -63,-6 -70,-4 -113,-10 19,4 42,10 69,15 27,5 56,11 86,16 8,2 15,3 23,4l23 3c15,2 30,4 45,5 15,2 29,3 43,4 14,1 27,1 39,1 53,-4 22,-17 23,-28 -2,-1 -12,-3 -25,-4 -14,-1 -32,-3 -50,-5 -35,-4 -70,-7 -73,-4z"/>
  <path class="fil1" d="M9817 11628c-28,-6 -37,-7 -55,-10 2,2 10,4 20,5 11,1 24,3 35,5z"/>
  <path class="fil1" d="M10497 11739c6,-2 60,-11 48,-12 0,0 -21,3 -41,6 -21,4 -41,5 -41,5 19,-1 26,0 34,1z"/>
  <path class="fil1" d="M10426 11742l37 -4c-10,1 -21,2 -37,4z"/>
  <path class="fil1" d="M10501 11740c-1,0 -2,0 -4,-1 -1,1 -1,1 4,1z"/>
  <path class="fil1" d="M11686 11372c0,3 31,-20 45,-33 -6,4 -14,10 -22,16 -8,5 -16,11 -23,17z"/>
  <path class="fil1" d="M12537 10227l13 -31c-5,11 -8,16 -13,31z"/>
  <path class="fil1" d="M12578 9709c-1,-1 -1,-3 -1,-6 0,3 0,5 1,6z"/>
  <path class="fil1" d="M12577 9703c0,-12 3,-34 6,-57 4,-23 5,-46 4,-59l1 3 1 -46c-1,22 -4,55 -6,86 -4,31 -6,60 -6,73z"/>
 </g>
</svg>
